<?xml version="1.0" encoding="UTF-8"?>
<svg version="1.1" xmlns="http://www.w3.org/2000/svg" width="618" height="515">
<path d="M0 0 C4.73949467 3.37014965 7.77589763 7.35503664 9.609375 12.85546875 C9.81143661 15.16514516 9.97337047 17.47846302 10.109375 19.79296875 C10.3410504 24.48494727 10.3410504 24.48494727 11.19140625 29.08203125 C12.24158756 33.53794073 9.34221298 38.77092208 7.609375 42.85546875 C6.619375 42.85546875 5.629375 42.85546875 4.609375 42.85546875 C2.11008154 53.66698257 2.11008154 53.66698257 3.796875 64.48046875 C8.76314885 72.05876207 20.65866754 74.2406398 28.859375 76.85546875 C37.75573497 79.71603763 45.89870235 82.78621975 50.546875 91.453125 C56.18600016 104.20335283 55.87122515 115.79278602 55.64404297 129.49609375 C55.48118251 145.27750187 55.53476656 159.4063947 62.51171875 173.77734375 C63.21162653 175.21971793 63.91082734 176.66243536 64.609375 178.10546875 C64.96169189 178.82927734 65.31400879 179.55308594 65.67700195 180.29882812 C69.43310708 188.22124343 71.25385963 196.32650863 73.02734375 204.86865234 C77.25052441 225.00140692 83.59103227 242.1735303 97.61328125 257.48046875 C101.52813258 262.13845233 104.88665983 267.41003842 107.609375 272.85546875 C106.484375 274.41796875 106.484375 274.41796875 104.609375 275.85546875 C100.75688905 275.61468838 98.84897566 275.01520253 95.609375 272.85546875 C95.58955566 273.42990723 95.56973633 274.0043457 95.54931641 274.59619141 C95.45345476 277.22470708 95.34402626 279.85249366 95.234375 282.48046875 C95.2034375 283.38410156 95.1725 284.28773438 95.140625 285.21875 C94.65581176 296.28865236 94.65581176 296.28865236 91.2421875 300.5703125 C87.19084465 303.85546875 87.19084465 303.85546875 84.671875 303.85546875 C83.99125 303.52546875 83.310625 303.19546875 82.609375 302.85546875 C81.413125 302.42234375 80.216875 301.98921875 78.984375 301.54296875 C75.42080644 299.76118447 74.98385739 299.34453944 73.609375 295.85546875 C72.97644531 295.27667969 72.34351563 294.69789063 71.69140625 294.1015625 C64.99019715 286.87230315 63.65537478 272.29034824 63.515625 262.7109375 C63.33906993 252.67188231 61.82830103 247.03574837 55.609375 238.85546875 C54.23147161 236.7038196 52.87795612 234.53639398 51.546875 232.35546875 C50.88171875 231.27265625 50.2165625 230.18984375 49.53125 229.07421875 C47.22028494 225.20382198 45.05058492 221.27218425 42.93359375 217.29296875 C42.02700618 215.6242058 41.07921953 213.97735595 40.09765625 212.3515625 C32.06328841 198.87659911 30.33653185 185.15887284 29.8203125 169.8125 C29.79016954 165.95571962 29.79016954 165.95571962 28.609375 162.85546875 C26.00376875 174.72028293 24.85483157 188.08577902 28.171875 199.92578125 C28.6687411 202.11731567 28.67148698 204.04917332 28.609375 206.29296875 C28.46031409 212.88604746 29.90912325 219.04295874 32.109375 225.23046875 C35.40141682 234.70635932 35.97136589 244.52467494 35.921875 254.48046875 C35.91841064 255.63981934 35.91494629 256.79916992 35.91137695 257.99365234 C35.7595544 270.40283898 34.38266459 282.58541441 32.609375 294.85546875 C32.50254395 295.6350293 32.39571289 296.41458984 32.28564453 297.21777344 C30.26859098 311.66504368 27.34476091 328.23402557 20.890625 341.34765625 C18.94105667 346.68519393 19.34566341 351.73280362 19.609375 357.35546875 C19.65698975 358.54076172 19.70460449 359.72605469 19.75366211 360.94726562 C20.23238003 369.90245838 21.62384681 378.40643481 23.88085938 387.08007812 C27.90438442 402.81053611 23.25968775 416.34899676 18.8125 431.421875 C18.57188843 432.23892914 18.33127686 433.05598328 18.08337402 433.89779663 C17.84058716 434.72107452 17.59780029 435.54435242 17.34765625 436.39257812 C16.98148193 437.63430786 16.98148193 437.63430786 16.60791016 438.90112305 C16.10781226 440.58263289 15.60159459 442.26233444 15.08935547 443.94018555 C9.33478456 461.25258389 9.33478456 461.25258389 12.01660156 478.58032227 C12.5422168 479.33112061 13.06783203 480.08191895 13.609375 480.85546875 C14.599375 482.34046875 14.599375 482.34046875 15.609375 483.85546875 C10.05429025 482.40631621 10.05429025 482.40631621 8.296875 480.23046875 C7.30423579 476.80135146 6.8743644 473.40127924 6.609375 469.85546875 C6.55523437 469.15164063 6.50109375 468.4478125 6.4453125 467.72265625 C6.19457381 461.36301123 7.76945513 455.8975785 9.609375 449.85546875 C10.27793983 447.48100239 10.94453824 445.10598165 11.609375 442.73046875 C15.20077117 430.22203191 15.20077117 430.22203191 17.390625 424.98828125 C23.65361943 409.89446468 22.74353556 393.9324965 18.4675293 378.57592773 C16.42307816 370.94014045 15.92197502 363.57413475 15.75 355.69921875 C15.75646616 352.11242187 15.75646616 352.11242187 15.06298828 349.74121094 C14.44501342 347.17219167 15.14242683 345.98941667 16.234375 343.60546875 C19.24805482 336.52851717 21.42983702 329.22068219 23.609375 321.85546875 C23.97289062 320.63601563 24.33640625 319.4165625 24.7109375 318.16015625 C30.29600291 298.42057392 31.66894035 278.60154232 31.734375 258.16796875 C31.73912842 256.94416504 31.74388184 255.72036133 31.7487793 254.45947266 C31.80397372 239.5055784 31.80397372 239.5055784 28.671875 224.98046875 C28.33285156 223.95179688 27.99382812 222.923125 27.64453125 221.86328125 C27.30292969 220.87070313 26.96132812 219.878125 26.609375 218.85546875 C25.94201561 216.85569979 25.27514594 214.8557671 24.609375 212.85546875 C23.949375 212.85546875 23.289375 212.85546875 22.609375 212.85546875 C22.939375 212.03046875 23.269375 211.20546875 23.609375 210.35546875 C25.35860685 204.23315726 24.94004503 199.63716772 23.109375 193.66796875 C19.6576692 181.50402474 22.34481031 170.88620055 25.36328125 158.97265625 C27.59703745 150.05414109 28.9778777 141.06803632 28.609375 131.85546875 C29.929375 132.51546875 31.249375 133.17546875 32.609375 133.85546875 C32.70248574 139.66971725 32.60732539 145.11725402 31.609375 150.85546875 C31.30105918 155.462588 31.50033096 159.52357662 32.6171875 164.0078125 C33.59763055 168.21657531 33.72412851 172.09564169 33.68115234 176.40136719 C33.61361032 196.08808942 42.84396745 211.73951293 53.31860352 227.85571289 C55.08754611 230.59628576 56.79336467 233.3748354 58.4987793 236.15527344 C59.68177896 238.04262703 59.68177896 238.04262703 61.671875 240.29296875 C67.71730467 248.28853702 67.98445594 255.27159594 67.65234375 264.96484375 C67.61686743 268.17706357 67.81330048 270.76840115 68.609375 273.85546875 C71.15111477 273.88263699 73.69255915 273.90238844 76.234375 273.91796875 C76.94722656 273.92634766 77.66007813 273.93472656 78.39453125 273.94335938 C82.58281938 273.96257171 86.4822212 273.68220145 90.609375 272.85546875 C90.609375 273.84546875 90.609375 274.83546875 90.609375 275.85546875 C86.73253413 277.04834286 83.69315577 277.85546875 79.609375 277.85546875 C79.91875 278.51160156 80.228125 279.16773438 80.546875 279.84375 C82.08724532 284.21002029 82.38008926 288.65882163 82.8203125 293.23632812 C83.16505064 297.49679606 83.16505064 297.49679606 85.609375 300.85546875 C85.279375 293.59546875 84.949375 286.33546875 84.609375 278.85546875 C85.269375 278.52546875 85.929375 278.19546875 86.609375 277.85546875 C87.83632279 281.53631213 88.21988008 285.20938222 88.671875 289.04296875 C88.76275391 289.79255859 88.85363281 290.54214844 88.94726562 291.31445312 C89.1707481 293.1611241 89.39043013 295.00825429 89.609375 296.85546875 C90.269375 296.85546875 90.929375 296.85546875 91.609375 296.85546875 C91.60413818 296.1190918 91.59890137 295.38271484 91.59350586 294.62402344 C91.57270633 291.2845139 91.55970532 287.94501801 91.546875 284.60546875 C91.53849609 283.44660156 91.53011719 282.28773438 91.52148438 281.09375 C91.51826172 279.97871094 91.51503906 278.86367188 91.51171875 277.71484375 C91.50648193 276.68842773 91.50124512 275.66201172 91.49584961 274.60449219 C91.59600549 272.17921219 91.91014422 270.16849514 92.609375 267.85546875 C91.289375 267.52546875 89.969375 267.19546875 88.609375 266.85546875 C88.609375 266.19546875 88.609375 265.53546875 88.609375 264.85546875 C92.88279414 265.3302931 94.71256928 267.88624288 97.609375 270.85546875 C99.85575818 272.20329866 101.00383334 272.85546875 103.609375 272.85546875 C99.19856927 265.39571897 94.3674464 258.32924791 87.984375 252.41796875 C76.78899962 241.55299226 71.86734049 220.77426224 69.04223633 205.90307617 C65.95881151 189.61057144 65.95881151 189.61057144 58.421875 175.10546875 C48.67511889 161.96520855 51.4998913 138.09671846 51.69921875 122.58032227 C51.84035968 110.63725112 51.98543084 98.34263404 43.609375 88.85546875 C37.78275633 83.19375438 30.22967231 81.21201061 22.61279297 79.03466797 C13.67101621 76.45604942 6.57376462 73.20769418 0.609375 65.85546875 C-0.99211053 62.79175731 -1.390625 61.30562083 -1.390625 57.85546875 C-1.86113281 58.27699219 -2.33164063 58.69851562 -2.81640625 59.1328125 C-3.43902344 59.68066406 -4.06164062 60.22851562 -4.703125 60.79296875 C-5.31800781 61.33824219 -5.93289062 61.88351563 -6.56640625 62.4453125 C-11.05714283 65.91673843 -16.99567083 65.44037106 -22.390625 64.85546875 C-25.19625025 63.66158567 -27.22511624 62.02097751 -29.390625 59.85546875 C-29.720625 62.49546875 -30.050625 65.13546875 -30.390625 67.85546875 C-31.050625 67.85546875 -31.710625 67.85546875 -32.390625 67.85546875 C-32.6690625 68.72171875 -32.6690625 68.72171875 -32.953125 69.60546875 C-36.79744821 75.6226703 -45.88940616 77.86735408 -52.390625 79.85546875 C-54.57442441 80.33112181 -56.7621246 80.78917185 -58.953125 81.23046875 C-66.3355502 82.89633667 -72.69198732 85.13572492 -77.26953125 91.4453125 C-81.9184128 99.61166105 -84.34392181 107.43465322 -83.390625 116.85546875 C-83.05901367 117.89372803 -82.72740234 118.9319873 -82.38574219 120.00170898 C-81.3185771 124.13448643 -81.12555674 127.91084757 -81.203125 132.140625 C-81.2139209 132.9187706 -81.2247168 133.6969162 -81.23583984 134.49864197 C-81.26375102 136.1400756 -81.29770782 137.78141646 -81.33740234 139.42260742 C-81.38996637 141.88708856 -81.40077904 144.34948191 -81.41015625 146.81445312 C-81.57550427 157.48810121 -83.38685104 165.37804065 -88.390625 174.85546875 C-89.12031438 176.31354061 -89.84962489 177.77180233 -90.578125 179.23046875 C-90.89007813 179.84664062 -91.20203125 180.4628125 -91.5234375 181.09765625 C-94.59351301 187.32078228 -95.92102223 193.28520978 -97.12963867 200.09350586 C-105.45490176 246.35374382 -105.45490176 246.35374382 -121.390625 257.85546875 C-122.380625 258.18546875 -123.370625 258.51546875 -124.390625 258.85546875 C-124.679375 259.72171875 -124.968125 260.58796875 -125.265625 261.48046875 C-126.45274648 265.0418332 -127.99963291 267.31220003 -130.26953125 270.2421875 C-131.58784562 271.97764776 -131.58784562 271.97764776 -132.390625 274.85546875 C-127.43911142 272.80240214 -124.54352558 270.15881871 -121.1015625 266.18359375 C-120.25464844 265.52617188 -120.25464844 265.52617188 -119.390625 264.85546875 C-117.1796875 265.15234375 -117.1796875 265.15234375 -115.390625 265.85546875 C-116.04184326 266.21431152 -116.69306152 266.5731543 -117.36401367 266.94287109 C-119.6849256 268.74255118 -119.6849256 268.74255118 -119.8605957 271.84228516 C-119.84601318 273.03515137 -119.83143066 274.22801758 -119.81640625 275.45703125 C-119.80383789 277.39835938 -119.80383789 277.39835938 -119.79101562 279.37890625 C-119.77659424 280.05147461 -119.76217285 280.72404297 -119.74731445 281.41699219 C-119.70313361 283.48006688 -119.68586515 285.54197901 -119.67382812 287.60546875 C-120.18603944 293.61796695 -120.18603944 293.61796695 -118.390625 298.85546875 C-118.33003906 297.80746094 -118.26945312 296.75945312 -118.20703125 295.6796875 C-118.12260762 294.30076827 -118.03796053 292.9218627 -117.953125 291.54296875 C-117.91380859 290.85267578 -117.87449219 290.16238281 -117.83398438 289.45117188 C-117.64135085 286.3838534 -117.36739783 283.78578723 -116.390625 280.85546875 C-117.050625 280.85546875 -117.710625 280.85546875 -118.390625 280.85546875 C-118.390625 280.19546875 -118.390625 279.53546875 -118.390625 278.85546875 C-111.460625 278.52546875 -104.530625 278.19546875 -97.390625 277.85546875 C-96.44804081 275.02771617 -96.24264706 273.15257169 -96.1796875 270.21484375 C-96.15132812 269.30863281 -96.12296875 268.40242188 -96.09375 267.46875 C-96.0420981 265.57570783 -95.99770235 263.6824523 -95.9609375 261.7890625 C-95.61974123 251.73798903 -91.25063997 244.64972678 -86.328125 236.10546875 C-84.00995844 232.02533947 -81.69978565 227.94070075 -79.390625 223.85546875 C-78.88917969 222.97052734 -78.38773438 222.08558594 -77.87109375 221.17382812 C-69.12958847 205.62936075 -65.16927068 191.96466045 -64.07226562 174.15356445 C-63.7454207 168.99606946 -63.11206502 164.7538753 -61.390625 159.85546875 C-60.77745647 151.82115758 -61.2136652 143.98880782 -62.953125 136.125 C-63.390625 133.85546875 -63.390625 133.85546875 -63.390625 129.85546875 C-62.400625 129.85546875 -61.410625 129.85546875 -60.390625 129.85546875 C-57.86789997 137.94921156 -57.26572421 145.01112672 -57.515625 153.41796875 C-57.73510719 162.06526001 -56.42243862 168.12171717 -52.390625 175.85546875 C-49.36443772 184.01481329 -50.09826763 189.88157855 -52.83203125 197.94921875 C-54.27861763 205.47551435 -51.81145144 210.76664181 -48.015625 217.04296875 C-47.61601563 217.72810547 -47.21640625 218.41324219 -46.8046875 219.11914062 C-45.1112557 222.01301503 -43.37833837 224.87513272 -41.6015625 227.71875 C-40.390625 229.85546875 -40.390625 229.85546875 -40.390625 231.85546875 C-39.400625 232.18546875 -38.410625 232.51546875 -37.390625 232.85546875 C-37.390625 233.84546875 -37.390625 234.83546875 -37.390625 235.85546875 C-41.16043124 234.99379875 -42.8309691 233.58877796 -44.828125 230.41796875 C-45.70130827 228.90797348 -46.55331211 227.38564581 -47.390625 225.85546875 C-47.93460937 224.87449219 -48.47859375 223.89351562 -49.0390625 222.8828125 C-50.50539562 220.2151877 -51.95480648 217.5396106 -53.390625 214.85546875 C-54.92598968 219.92682482 -56.05389452 224.94862572 -56.953125 230.16796875 C-57.07880859 230.86341797 -57.20449219 231.55886719 -57.33398438 232.27539062 C-58.88516904 241.13582239 -59.5495202 249.94008602 -59.59375 258.9296875 C-59.59945007 259.8565889 -59.60515015 260.7834903 -59.61102295 261.73847961 C-59.62040196 263.68721399 -59.62697836 265.63596372 -59.63085938 267.5847168 C-59.64054375 270.51835725 -59.67162723 273.45128944 -59.703125 276.38476562 C-59.76484554 287.30427348 -59.12111394 297.23012362 -56.390625 307.85546875 C-56.19178711 308.69634033 -55.99294922 309.53721191 -55.78808594 310.40356445 C-55.27898445 312.50534053 -54.72535298 314.58609403 -54.140625 316.66796875 C-53.93590576 317.40442627 -53.73118652 318.14088379 -53.52026367 318.8996582 C-51.66538903 325.33756501 -49.32872907 331.55337003 -46.80175781 337.75512695 C-45.04126097 342.07693689 -43.59096683 346.34383911 -42.390625 350.85546875 C-41.730625 350.85546875 -41.070625 350.85546875 -40.390625 350.85546875 C-40.1946875 351.3865625 -39.99875 351.91765625 -39.796875 352.46484375 C-37.53204008 357.81454002 -35.34969627 359.99688383 -30 362.26171875 C-29.20335938 362.555625 -29.20335938 362.555625 -28.390625 362.85546875 C-28.390625 363.18546875 -28.390625 363.51546875 -28.390625 363.85546875 C-31.578125 364.16796875 -31.578125 364.16796875 -35.390625 363.85546875 C-38.12890625 361.3359375 -38.12890625 361.3359375 -40.390625 358.85546875 C-40.60996704 360.14179199 -40.60996704 360.14179199 -40.83374023 361.45410156 C-41.37857997 364.64490437 -41.9247908 367.8354686 -42.47192383 371.02587891 C-42.70814858 372.40501698 -42.9438315 373.78424798 -43.17895508 375.16357422 C-43.51760626 377.14965957 -43.85838752 379.13538135 -44.19921875 381.12109375 C-44.40345459 382.31508789 -44.60769043 383.50908203 -44.81811523 384.73925781 C-45.14339893 386.50979987 -45.49914327 388.27694555 -45.94799805 390.02026367 C-50.28245212 407.99163228 -43.76226086 427.44459858 -35.51391602 443.18774414 C-30.35852527 453.19357136 -28.79797356 464.71853388 -30.390625 475.85546875 C-32.25341781 479.1908434 -34.38103803 481.52150334 -37.390625 483.85546875 C-36.070625 483.52546875 -34.750625 483.19546875 -33.390625 482.85546875 C-35.265625 487.60546875 -35.265625 487.60546875 -36.390625 489.85546875 C-35.070625 489.85546875 -33.750625 489.85546875 -32.390625 489.85546875 C-32.060625 487.87546875 -31.730625 485.89546875 -31.390625 483.85546875 C-30.400625 483.52546875 -29.410625 483.19546875 -28.390625 482.85546875 C-29.265625 487.60546875 -29.265625 487.60546875 -30.390625 489.85546875 C-29.400625 490.18546875 -28.410625 490.51546875 -27.390625 490.85546875 C-26.400625 487.88546875 -25.410625 484.91546875 -24.390625 481.85546875 C-23.730625 481.85546875 -23.070625 481.85546875 -22.390625 481.85546875 C-22.720625 483.50546875 -23.050625 485.15546875 -23.390625 486.85546875 C-21.740625 486.85546875 -20.090625 486.85546875 -18.390625 486.85546875 C-19.31875 487.22671875 -19.31875 487.22671875 -20.265625 487.60546875 C-22.74131187 489.06175514 -23.34187502 490.23359381 -24.390625 492.85546875 C-21.750625 492.85546875 -19.110625 492.85546875 -16.390625 492.85546875 C-15.50916837 487.76555379 -15.34218067 483.01746705 -15.703125 477.85546875 C-15.73857422 477.18257813 -15.77402344 476.5096875 -15.81054688 475.81640625 C-16.02187795 472.54866013 -16.44995602 469.66089891 -17.40649414 466.52403259 C-18.38180083 462.88836277 -18.62115286 459.97004578 -18.5859375 456.22094727 C-18.57602783 454.30844933 -18.57602783 454.30844933 -18.56591797 452.35731506 C-18.5535611 451.34990611 -18.5535611 451.34990611 -18.54095459 450.32214546 C-18.51518411 448.19803488 -18.50233498 446.07417728 -18.49267578 443.94993591 C-18.46608219 438.67592257 -18.4176715 433.40215188 -18.36987305 428.1282959 C-18.33024079 423.66345983 -18.29903254 419.19871461 -18.27874756 414.73374748 C-18.26589563 412.65318632 -18.24088396 410.57300697 -18.21533203 408.49256897 C-18.1812045 401.88990664 -18.42095983 396.16638819 -20.390625 389.85546875 C-21.00291299 384.5993342 -20.54973211 380.00753928 -18.88720703 374.99169922 C-16.87773221 367.85013283 -17.03308977 360.84947699 -17.1328125 353.48828125 C-17.14098875 352.00406631 -17.1476372 350.51984227 -17.15286255 349.03561401 C-17.16987403 345.13729811 -17.20397254 341.239338 -17.24291992 337.34118652 C-17.30937128 330.43203119 -17.34663853 323.52264969 -17.3828125 316.61328125 C-17.3873217 315.86701729 -17.3918309 315.12075333 -17.39647675 314.35187531 C-17.47989728 299.49984841 -17.05678074 284.69320447 -16.390625 269.85546875 C-14.390625 270.85546875 -14.390625 270.85546875 -13.78320312 272.48950195 C-13.27123571 275.57499711 -13.18699365 278.58369033 -13.109375 281.7109375 C-13.09096558 282.37201004 -13.07255615 283.03308258 -13.05358887 283.71418762 C-12.99507902 285.82369434 -12.94223959 287.93328281 -12.890625 290.04296875 C-12.83879564 292.13479196 -12.78553554 294.22652632 -12.72766113 296.31819153 C-12.674826 298.22920172 -12.6272951 300.14035641 -12.58007812 302.05151367 C-12.44304421 304.80296394 -12.22003594 307.43581136 -11.8840332 310.16088867 C-11.28434332 315.27380345 -11.23776124 320.34506432 -11.21484375 325.48828125 C-11.19163656 327.53256228 -11.16751887 329.57683314 -11.14257812 331.62109375 C-11.10764016 334.79336306 -11.07818969 337.96525786 -11.06469727 341.13769531 C-11.00730206 352.46486014 -10.80314917 362.97675729 -7.33911133 373.82763672 C-5.38336495 380.07092282 -5.48719194 384.33037956 -7.328125 390.54296875 C-9.69990364 399.35157449 -9.81099748 406.67233856 -8.65887451 415.754776 C-7.45123941 425.50817158 -7.0789565 435.132422 -7.12988281 444.9543457 C-7.14075734 447.44831874 -7.12982373 449.94159322 -7.1171875 452.43554688 C-7.11850709 454.05599114 -7.12106531 455.67643498 -7.125 457.296875 C-7.12095154 458.02516006 -7.11690308 458.75344513 -7.11273193 459.50379944 C-7.15416553 464.11758891 -7.7993734 468.28864404 -8.94338989 472.75997925 C-9.69938719 476.30215286 -9.60346392 479.81319442 -9.515625 483.41796875 C-9.50660156 484.14048828 -9.49757813 484.86300781 -9.48828125 485.60742188 C-9.46510909 487.35692022 -9.4292582 489.10624352 -9.390625 490.85546875 C-6.750625 490.85546875 -4.110625 490.85546875 -1.390625 490.85546875 C-2.710625 490.19546875 -4.030625 489.53546875 -5.390625 488.85546875 C-5.390625 488.19546875 -5.390625 487.53546875 -5.390625 486.85546875 C-4.730625 486.52546875 -4.070625 486.19546875 -3.390625 485.85546875 C-3.390625 485.19546875 -3.390625 484.53546875 -3.390625 483.85546875 C0.484375 485.73046875 0.484375 485.73046875 1.609375 486.85546875 C1.65001332 488.5216399 1.652096 490.1893497 1.609375 491.85546875 C2.929375 491.85546875 4.249375 491.85546875 5.609375 491.85546875 C4.949375 491.52546875 4.289375 491.19546875 3.609375 490.85546875 C3.609375 490.19546875 3.609375 489.53546875 3.609375 488.85546875 C4.269375 488.52546875 4.929375 488.19546875 5.609375 487.85546875 C5.279375 486.20546875 4.949375 484.55546875 4.609375 482.85546875 C5.269375 483.18546875 5.929375 483.51546875 6.609375 483.85546875 C6.939375 484.84546875 7.269375 485.83546875 7.609375 486.85546875 C9.48324716 487.65759503 9.48324716 487.65759503 11.671875 488.04296875 C12.77208984 488.28080078 12.77208984 488.28080078 13.89453125 488.5234375 C14.74337891 488.68779297 14.74337891 488.68779297 15.609375 488.85546875 C15.609375 487.86546875 15.609375 486.87546875 15.609375 485.85546875 C17.421875 485.16796875 17.421875 485.16796875 19.609375 484.85546875 C21.359375 486.04296875 21.359375 486.04296875 22.609375 487.85546875 C22.609375 489.17546875 22.609375 490.49546875 22.609375 491.85546875 C18.79501801 494.39837341 15.48333782 494.30884804 11.046875 494.48046875 C10.23855225 494.51696533 9.43022949 494.55346191 8.59741211 494.59106445 C6.26833766 494.69084521 3.93920564 494.77557989 1.609375 494.85546875 C0.51882812 494.89800781 -0.57171875 494.94054687 -1.6953125 494.984375 C-7.98722407 495.12440271 -7.98722407 495.12440271 -11.390625 492.85546875 C-11.390625 492.19546875 -11.390625 491.53546875 -11.390625 490.85546875 C-12.050625 490.85546875 -12.710625 490.85546875 -13.390625 490.85546875 C-13.390625 491.51546875 -13.390625 492.17546875 -13.390625 492.85546875 C-16.80725195 495.13322005 -17.96501961 495.05072858 -21.953125 494.91796875 C-25.82152793 494.68738178 -25.82152793 494.68738178 -29.390625 495.85546875 C-32.07643103 495.81784431 -34.71333242 495.71380997 -37.390625 495.54296875 C-38.12796875 495.50751953 -38.8653125 495.47207031 -39.625 495.43554688 C-45.14818695 495.0979068 -45.14818695 495.0979068 -47.390625 492.85546875 C-47.70609327 489.70078602 -47.78662192 488.61002206 -46.390625 485.85546875 C-43.68008821 483.49385506 -40.86436269 481.52574257 -37.859375 479.5546875 C-35.30702009 478.09093896 -35.30702009 478.09093896 -34.390625 475.85546875 C-33.43360654 460.10147261 -37.20402406 448.63063254 -44.5625 434.625 C-53.52841423 416.7966244 -51.52780364 393.87813982 -46.765625 375.16796875 C-44.18264566 364.42542389 -44.91370994 355.31694817 -48.63232422 344.97167969 C-49.55346082 342.40103834 -50.44249723 339.82002646 -51.33203125 337.23828125 C-52.70618781 333.2576805 -54.09178476 329.2814089 -55.48828125 325.30859375 C-55.81022461 324.38344971 -56.13216797 323.45830566 -56.46386719 322.50512695 C-57.04771463 320.8358708 -57.64083984 319.16980304 -58.24707031 317.50854492 C-60.22075874 311.95005622 -61.2940444 306.51681162 -62.015625 300.66796875 C-62.13897217 299.66983154 -62.26231934 298.67169434 -62.3894043 297.64331055 C-63.51317504 287.5067931 -63.89887267 277.35548664 -64.203125 267.16796875 C-64.23053772 266.35631256 -64.25795044 265.54465637 -64.28619385 264.70840454 C-64.60341271 254.83630883 -64.29966706 245.59310667 -62.390625 235.85546875 C-62.04418833 233.91951809 -61.69910915 231.98332396 -61.35546875 230.046875 C-61.18644043 229.12181152 -61.01741211 228.19674805 -60.84326172 227.24365234 C-59.2808187 218.67317107 -57.94674684 210.31738097 -57.6640625 201.59765625 C-57.37208464 198.66953548 -56.51640717 196.55905169 -55.390625 193.85546875 C-53.47497207 184.68191951 -55.24547089 177.52239939 -58.390625 168.85546875 C-58.53310669 169.92692139 -58.53310669 169.92692139 -58.6784668 171.02001953 C-59.1294387 174.34249149 -59.60369386 177.66126855 -60.078125 180.98046875 C-60.22701172 182.10324219 -60.37589844 183.22601563 -60.52929688 184.3828125 C-62.5289467 198.10589956 -67.57831881 209.88498077 -74.078125 222.04296875 C-74.99307739 223.79770508 -74.99307739 223.79770508 -75.92651367 225.58789062 C-78.67065237 230.84484994 -81.4701958 236.05281464 -84.4921875 241.15625 C-90.12174313 250.80537317 -92.28308955 258.01368381 -92.265625 269.1875 C-92.28993116 274.021387 -93.12634708 278.48267549 -94.265625 283.16796875 C-94.42788574 283.8552002 -94.59014648 284.54243164 -94.75732422 285.25048828 C-97.38059727 295.56698944 -97.38059727 295.56698944 -101.828125 298.41796875 C-102.67375 298.89234375 -103.519375 299.36671875 -104.390625 299.85546875 C-105.009375 300.72171875 -105.628125 301.58796875 -106.265625 302.48046875 C-109.09385482 305.64143149 -111.26202193 305.61728011 -115.390625 305.85546875 C-115.720625 304.86546875 -116.050625 303.87546875 -116.390625 302.85546875 C-118.040625 302.52546875 -119.690625 302.19546875 -121.390625 301.85546875 C-122.43036999 298.44481736 -122.50571006 295.33282033 -122.48828125 291.77734375 C-122.48505859 290.6171875 -122.48183594 289.45703125 -122.47851562 288.26171875 C-122.47013672 287.05515625 -122.46175781 285.84859375 -122.453125 284.60546875 C-122.44861328 283.3834375 -122.44410156 282.16140625 -122.43945312 280.90234375 C-122.42767315 277.88666929 -122.41122353 274.87109377 -122.390625 271.85546875 C-123.00550781 272.28859375 -123.62039062 272.72171875 -124.25390625 273.16796875 C-125.46626953 274.00328125 -125.46626953 274.00328125 -126.703125 274.85546875 C-127.90388672 275.69078125 -127.90388672 275.69078125 -129.12890625 276.54296875 C-131.390625 277.85546875 -131.390625 277.85546875 -134.390625 277.85546875 C-134.84230186 272.64929867 -133.4516581 269.28495505 -130.828125 264.91796875 C-130.46678467 264.30187744 -130.10544434 263.68578613 -129.7331543 263.05102539 C-126.85628105 258.29735581 -123.60256215 254.49071035 -119.390625 250.85546875 C-112.73858895 244.50579797 -110.55603166 238.70540431 -108.203125 229.98046875 C-107.90414307 228.89781738 -107.60516113 227.81516602 -107.29711914 226.69970703 C-105.58079464 220.43089051 -103.94627027 214.14429597 -102.3671875 207.83984375 C-94.04437172 174.66490178 -94.04437172 174.66490178 -88.78515625 167.7421875 C-85.81715014 163.72664982 -86.15861844 158.94880067 -86.00390625 154.125 C-85.97838181 153.37514328 -85.95285736 152.62528656 -85.92655945 151.85270691 C-85.87464307 150.26670951 -85.82520537 148.68062929 -85.77807617 147.09448242 C-85.70390774 144.6933096 -85.61300732 142.29314352 -85.52148438 139.89257812 C-85.26599198 132.21935311 -85.38667762 125.32264908 -87.390625 117.85546875 C-88.01398129 109.15681513 -86.59088531 102.05422639 -82.828125 94.29296875 C-82.5182666 93.63868896 -82.2084082 92.98440918 -81.88916016 92.31030273 C-77.69415701 84.37494242 -71.05403692 80.68531724 -62.7109375 78.03515625 C-61.37675781 77.63683594 -61.37675781 77.63683594 -60.015625 77.23046875 C-58.23601181 76.67889273 -56.45735874 76.12420925 -54.6796875 75.56640625 C-53.80973145 75.29344727 -52.93977539 75.02048828 -52.04345703 74.73925781 C-42.17813547 71.83331354 -42.17813547 71.83331354 -34.390625 65.85546875 C-33.29220152 58.67264071 -34.08434309 51.37037868 -37.390625 44.85546875 C-38.68418327 43.48351301 -40.01361202 42.14364219 -41.390625 40.85546875 C-43.87460019 35.4233846 -43.56228956 30.36501081 -43.265625 24.54296875 C-43.24242188 23.64384766 -43.21921875 22.74472656 -43.1953125 21.81835938 C-42.84001825 14.14067271 -41.08689071 7.74432487 -35.765625 2.04296875 C-24.62161863 -5.96070665 -11.95037599 -6.65490515 0 0 Z M-35.765625 5.91796875 C-39.91014486 11.22884255 -40.75580623 17.42870996 -40.0546875 24.0078125 C-39.58484883 26.65320847 -39.04567993 29.2503657 -38.390625 31.85546875 C-39.050625 31.85546875 -39.710625 31.85546875 -40.390625 31.85546875 C-40.720625 31.19546875 -41.050625 30.53546875 -41.390625 29.85546875 C-41.08140616 31.31450133 -40.76813701 32.77267597 -40.453125 34.23046875 C-40.27910156 35.04257812 -40.10507813 35.8546875 -39.92578125 36.69140625 C-39.46731807 38.88493175 -39.46731807 38.88493175 -38.390625 40.85546875 C-37.400625 40.85546875 -36.410625 40.85546875 -35.390625 40.85546875 C-35.0503125 42.55703125 -35.0503125 42.55703125 -34.703125 44.29296875 C-33.47446773 49.30624915 -31.04989713 53.4707147 -28.390625 57.85546875 C-27.400625 57.85546875 -26.410625 57.85546875 -25.390625 57.85546875 C-25.390625 58.51546875 -25.390625 59.17546875 -25.390625 59.85546875 C-20.78712421 62.50115886 -16.58033171 62.46507881 -11.390625 61.85546875 C-4.34970406 59.27379774 -1.61548854 54.44043204 1.609375 47.85546875 C2.29774013 45.86283284 2.97218899 43.86505538 3.609375 41.85546875 C5.109375 40.23046875 5.109375 40.23046875 6.609375 38.85546875 C8.79735415 35.51592162 8.78832002 32.79225929 8.609375 28.85546875 C8.279375 28.85546875 7.949375 28.85546875 7.609375 28.85546875 C7.64417969 28.16582031 7.67898437 27.47617187 7.71484375 26.765625 C7.90504224 20.16302016 7.23261564 14.92324501 4.609375 8.85546875 C4.0215625 7.46328125 4.0215625 7.46328125 3.421875 6.04296875 C0.14199311 2.0844906 -4.60488765 0.45071453 -9.390625 -1.14453125 C-19.8998776 -1.90498725 -28.00326828 -1.78881023 -35.765625 5.91796875 Z M68.609375 276.85546875 C69.599375 281.47546875 70.589375 286.09546875 71.609375 290.85546875 C72.269375 290.85546875 72.929375 290.85546875 73.609375 290.85546875 C73.46732759 289.27179128 73.32057347 287.68853557 73.171875 286.10546875 C73.09066406 285.22375 73.00945312 284.34203125 72.92578125 283.43359375 C72.64699035 281.16196423 72.22146923 279.05695052 71.609375 276.85546875 C70.619375 276.85546875 69.629375 276.85546875 68.609375 276.85546875 Z M73.609375 277.85546875 C73.939375 278.84546875 74.269375 279.83546875 74.609375 280.85546875 C74.97244402 284.28125862 75.32686476 287.7041862 75.59570312 291.13867188 C75.80277467 293.52707647 75.80277467 293.52707647 76.609375 296.85546875 C78.54030974 298.43774362 78.54030974 298.43774362 80.609375 298.85546875 C80.09399548 291.72153123 79.16931599 284.83734058 77.609375 277.85546875 C76.289375 277.85546875 74.969375 277.85546875 73.609375 277.85546875 Z M-114.390625 280.85546875 C-115.71782386 287.82326278 -115.47887881 294.78535786 -115.390625 301.85546875 C-114.400625 301.85546875 -113.410625 301.85546875 -112.390625 301.85546875 C-111.27238685 299.61899244 -111.19666439 298.20655346 -111.07421875 295.72265625 C-111.03232422 294.91699219 -110.99042969 294.11132812 -110.94726562 293.28125 C-110.90794922 292.43949219 -110.86863281 291.59773438 -110.828125 290.73046875 C-110.76334961 289.45623047 -110.76334961 289.45623047 -110.69726562 288.15625 C-110.59108264 286.05618652 -110.49034003 283.95584927 -110.390625 281.85546875 C-111.710625 281.52546875 -113.030625 281.19546875 -114.390625 280.85546875 Z M-108.390625 281.85546875 C-109.050625 288.12546875 -109.710625 294.39546875 -110.390625 300.85546875 C-109.400625 300.85546875 -108.410625 300.85546875 -107.390625 300.85546875 C-105.47553326 297.53811319 -104.8797516 294.50378012 -104.328125 290.73046875 C-103.48784722 285.04991319 -103.48784722 285.04991319 -102.390625 282.85546875 C-102.390625 285.63542982 -102.60360429 288.28039442 -102.890625 291.04296875 C-102.9834375 291.94402344 -103.07625 292.84507812 -103.171875 293.7734375 C-103.28015625 294.80404297 -103.28015625 294.80404297 -103.390625 295.85546875 C-102.400625 295.52546875 -101.410625 295.19546875 -100.390625 294.85546875 C-97.93272463 289.57553463 -97.02927528 285.63706428 -97.390625 279.85546875 C-101.11740496 279.85546875 -104.75259062 281.04701667 -108.390625 281.85546875 Z M-42.390625 353.85546875 C-41.390625 356.85546875 -41.390625 356.85546875 -41.390625 356.85546875 Z M-13.390625 370.85546875 C-16.95365083 380.39928795 -18.94862969 387.01863225 -15.390625 396.85546875 C-15.01531054 399.18241839 -14.67145298 401.5152356 -14.390625 403.85546875 C-12.23863545 400.10652768 -11.25270064 396.07459141 -10.203125 391.91796875 C-10.01298828 391.21478516 -9.82285156 390.51160156 -9.62695312 389.78710938 C-8.11793388 383.84569414 -8.78225871 380.11171271 -10.953125 374.54296875 C-11.4275 373.32609375 -11.901875 372.10921875 -12.390625 370.85546875 C-12.720625 370.85546875 -13.050625 370.85546875 -13.390625 370.85546875 Z M-14.390625 408.85546875 C-14.67905341 413.39016164 -14.96373492 417.9250695 -15.24511719 422.46020508 C-15.34112123 423.99933035 -15.43810538 425.53839485 -15.53613281 427.07739258 C-16.6126033 442.60760773 -16.6126033 442.60760773 -15.515625 458.10546875 C-15.35320312 459.265625 -15.19078125 460.42578125 -15.0234375 461.62109375 C-14.4422605 464.59155397 -13.62293141 467.10090149 -12.390625 469.85546875 C-6.32214901 460.75275477 -9.68969586 444.42540159 -10.48706055 433.96484375 C-10.70581526 431.0698661 -10.90359719 428.17394117 -11.09960938 425.27734375 C-11.23314375 423.43350417 -11.36786435 421.58975002 -11.50390625 419.74609375 C-11.56234207 418.88163635 -11.62077789 418.01717896 -11.6809845 417.12652588 C-11.87396673 412.51550616 -11.87396673 412.51550616 -14.390625 408.85546875 Z M-13.390625 476.85546875 C-12.390625 480.85546875 -12.390625 480.85546875 -12.390625 480.85546875 Z M-39.390625 485.85546875 C-40.380625 487.34046875 -40.380625 487.34046875 -41.390625 488.85546875 C-40.400625 489.18546875 -39.410625 489.51546875 -38.390625 489.85546875 C-38.060625 488.53546875 -37.730625 487.21546875 -37.390625 485.85546875 C-38.050625 485.85546875 -38.710625 485.85546875 -39.390625 485.85546875 Z M-44.390625 486.85546875 C-44.720625 487.51546875 -45.050625 488.17546875 -45.390625 488.85546875 C-44.400625 488.52546875 -43.410625 488.19546875 -42.390625 487.85546875 C-43.050625 487.52546875 -43.710625 487.19546875 -44.390625 486.85546875 Z M18.609375 486.85546875 C18.609375 487.51546875 18.609375 488.17546875 18.609375 488.85546875 C19.269375 488.85546875 19.929375 488.85546875 20.609375 488.85546875 C20.609375 488.19546875 20.609375 487.53546875 20.609375 486.85546875 C19.949375 486.85546875 19.289375 486.85546875 18.609375 486.85546875 Z M19.609375 489.85546875 C20.609375 491.85546875 20.609375 491.85546875 20.609375 491.85546875 Z M-32.390625 490.85546875 C-32.390625 491.51546875 -32.390625 492.17546875 -32.390625 492.85546875 C-31.400625 493.18546875 -30.410625 493.51546875 -29.390625 493.85546875 C-29.060625 493.19546875 -28.730625 492.53546875 -28.390625 491.85546875 C-29.710625 491.52546875 -31.030625 491.19546875 -32.390625 490.85546875 Z M15.609375 490.85546875 C15.939375 491.51546875 16.269375 492.17546875 16.609375 492.85546875 C16.939375 492.19546875 17.269375 491.53546875 17.609375 490.85546875 C16.949375 490.85546875 16.289375 490.85546875 15.609375 490.85546875 Z " fill="#000000" transform="translate(142.390625,12.14453125)"/>
<path d="M0 0 C4.62579294 2.59020026 7.19501178 4.58422971 9.4375 9.375 C10.0253125 10.5196875 10.0253125 10.5196875 10.625 11.6875 C12.09893801 16.56283341 13.06587899 21.48986304 11.4375 26.375 C12.4275 26.705 13.4175 27.035 14.4375 27.375 C14.89240918 33.74372855 13.99099016 38.01505331 10.4375 43.375 C9.91800781 43.84292969 9.39851562 44.31085937 8.86328125 44.79296875 C5.35780622 48.68260543 5.971783 55.47884081 6.05078125 60.4375 C6.55783314 64.28904565 7.58553886 66.19416746 10.3671875 68.859375 C17.74380596 74.25961644 26.12944315 77.15189963 34.82958984 79.63916016 C43.75754523 82.21146984 49.05269683 85.85178734 54.4375 93.375 C58.66899789 101.03547032 61.74606403 109.9377092 59.953125 118.7578125 C59.31764204 121.98336995 59.30536389 125.026321 59.3125 128.3125 C59.30992187 129.49714844 59.30734375 130.68179688 59.3046875 131.90234375 C59.42915702 135.15685566 59.89615746 138.16990848 60.4375 141.375 C60.47944455 143.27036927 60.47887259 145.16711816 60.4375 147.0625 C60.40106351 159.96396401 60.40106351 159.96396401 65.7578125 171.421875 C71.62145036 181.73096853 73.93371663 194.08893299 76.54541016 205.54052734 C78.42781095 213.65772663 80.83937426 221.50719436 83.69775391 229.33203125 C84.17860898 230.66001647 84.64528127 231.9932534 85.09521484 233.33203125 C87.8493812 241.51196884 91.25831466 246.64455252 97.88623047 252.02832031 C104.26228485 257.45585423 107.21026151 264.80997331 110.4375 272.375 C108.9525 273.86 108.9525 273.86 107.4375 275.375 C104.52232708 274.30098892 102.65939824 273.59689824 100.4375 271.375 C98.85817996 272.95432004 99.27326441 274.59509379 99.2265625 276.78515625 C99.19820312 277.69330078 99.16984375 278.60144531 99.140625 279.53710938 C99.08928298 281.44318203 99.04480442 283.34945423 99.0078125 285.25585938 C98.80504221 291.26715359 97.99313925 295.90394705 95.4375 301.375 C93.0625 303.4375 93.0625 303.4375 90.4375 304.375 C87.625 304.0625 87.625 304.0625 85.4375 303.375 C85.4375 302.715 85.4375 302.055 85.4375 301.375 C84.86 301.6225 84.2825 301.87 83.6875 302.125 C82.945 302.2075 82.2025 302.29 81.4375 302.375 C79.5 300.8125 79.5 300.8125 77.4375 298.375 C76.61507812 297.49070312 75.79265625 296.60640625 74.9453125 295.6953125 C72.20595409 292.39529907 71.13241714 288.96071825 70.25 284.8125 C70.08910889 284.11141113 69.92821777 283.41032227 69.76245117 282.68798828 C67.7961873 273.89117712 66.48523914 265.26750049 66.25 256.25 C65.76713099 248.732229 62.94099332 244.24949899 58.4375 238.375 C57.10214753 236.54313683 55.76882653 234.70979115 54.4375 232.875 C53.43783203 231.51181641 53.43783203 231.51181641 52.41796875 230.12109375 C38.35614771 210.62314466 34.12548953 190.89706544 32.4375 167.375 C31.7775 167.375 31.1175 167.375 30.4375 167.375 C30.0165846 170.03978813 29.62557425 172.70375596 29.25 175.375 C29.12947266 176.11878906 29.00894531 176.86257812 28.88476562 177.62890625 C28.2101609 182.63403809 28.69797703 185.91860088 30.6965332 190.54394531 C31.73019125 193.09828976 31.95436113 195.51219406 32.125 198.25 C32.19332031 199.28640625 32.26164063 200.3228125 32.33203125 201.390625 C32.42230128 203.94493252 32.39611925 206.44741249 32.3125 209 C32.19964527 216.64904277 33.00370865 227.5074173 36.4375 234.375 C38.89860961 250.6326949 39.04383217 266.31707358 36.9921875 282.60546875 C36.58568264 285.89788438 36.29077341 289.17825381 36.0703125 292.48828125 C34.96283834 308.56432902 31.90064799 324.23682767 27.15625 339.65234375 C22.7629208 354.10325874 23.6258431 368.53635586 26.36938477 383.25439453 C29.61816456 401.98446702 26.06777097 418.09043435 21 436.125 C20.0775483 439.4903433 19.16183186 442.85743623 18.24900818 446.22540283 C17.68405051 448.30087401 17.11238107 450.37453414 16.53285217 452.44598389 C14.72375783 458.97599067 13.31115204 465.25016224 13.25 472.0625 C13.23582031 472.78824219 13.22164062 473.51398438 13.20703125 474.26171875 C13.47408047 476.71042429 14.14203204 478.28861475 15.4375 480.375 C16.0975 480.705 16.7575 481.035 17.4375 481.375 C17.4375 482.035 17.4375 482.695 17.4375 483.375 C18.22125 483.643125 19.005 483.91125 19.8125 484.1875 C22.4375 485.375 22.4375 485.375 24.4375 488.375 C24.0625 490.5625 24.0625 490.5625 23.4375 492.375 C18.22277394 494.04920152 13.39680556 494.82224781 7.9375 495.125 C7.21691406 495.18042969 6.49632812 495.23585938 5.75390625 495.29296875 C0.8957864 495.58287464 -2.88002167 494.88173808 -7.5625 493.375 C-10.38880345 493.24344687 -10.38880345 493.24344687 -12.34936523 493.86230469 C-17.60582943 495.0800184 -23.25603679 494.6035134 -28.625 494.625 C-30.56342773 494.6559375 -30.56342773 494.6559375 -32.54101562 494.6875 C-33.77658203 494.69265625 -35.01214844 494.6978125 -36.28515625 494.703125 C-37.41703369 494.7124707 -38.54891113 494.72181641 -39.71508789 494.73144531 C-42.5625 494.375 -42.5625 494.375 -44.44702148 492.97558594 C-45.5625 491.375 -45.5625 491.375 -45.6875 489.4375 C-44.5625 487.375 -44.5625 487.375 -41.3125 485.75 C-36.23839326 483.0717086 -34.27268123 478.6887774 -32.5625 473.375 C-31.28595698 464.54557747 -33.87442562 456.96686625 -37.25 448.9375 C-47.38684953 424.71549645 -51.52882713 401.45686192 -45.34130859 375.82495117 C-42.87976361 365.43575755 -43.11358169 357.26012352 -46.25 347.0625 C-46.52183105 346.14388184 -46.79366211 345.22526367 -47.07373047 344.27880859 C-48.58435712 339.26719664 -50.25187142 334.36620643 -52.1875 329.5 C-60.33563688 308.99907867 -61.82634819 287.59273355 -61.9375 265.75 C-61.94928284 264.60985947 -61.94928284 264.60985947 -61.96130371 263.44668579 C-62.03334671 254.50307929 -61.38129892 246.44298999 -59.27539062 237.69921875 C-58.10366663 232.2354537 -57.89815457 226.75630252 -57.625 221.1875 C-56.97258691 210.02600778 -55.66466922 199.10388969 -53.79516602 188.08129883 C-53.53497681 186.4980481 -53.53497681 186.4980481 -53.26953125 184.8828125 C-53.1094458 183.96129395 -52.94936035 183.03977539 -52.78442383 182.09033203 C-52.40155561 177.40577725 -53.21733206 173.43995777 -55.5625 169.375 C-57.47108579 171.28358579 -56.66669357 174.11434516 -56.69897461 176.65844727 C-57.17605082 201.47325833 -69.72284433 221.24276234 -82.18383789 241.99121094 C-88.00646252 250.41835642 -88.00646252 250.41835642 -89.1875 260.0625 C-87.76275909 270.82009431 -90.14731367 281.18099099 -93.5625 291.375 C-94.2225 292.035 -94.8825 292.695 -95.5625 293.375 C-96.8825 293.375 -98.2025 293.375 -99.5625 293.375 C-99.645 294.2825 -99.7275 295.19 -99.8125 296.125 C-100.65498732 299.77577839 -101.74131618 301.00884583 -104.5625 303.375 C-105.5525 303.045 -106.5425 302.715 -107.5625 302.375 C-107.5625 303.035 -107.5625 303.695 -107.5625 304.375 C-108.5525 304.705 -109.5425 305.035 -110.5625 305.375 C-111.2225 304.715 -111.8825 304.055 -112.5625 303.375 C-113.408125 303.045 -114.25375 302.715 -115.125 302.375 C-117.5625 301.375 -117.5625 301.375 -118.5625 299.375 C-118.78489689 297.41856527 -118.95465854 295.45602275 -119.09765625 293.4921875 C-119.18466797 292.32558594 -119.27167969 291.15898437 -119.36132812 289.95703125 C-119.44833984 288.73371094 -119.53535156 287.51039063 -119.625 286.25 C-119.71587891 285.01894531 -119.80675781 283.78789062 -119.90039062 282.51953125 C-120.12485003 279.47160885 -120.34538542 276.42345297 -120.5625 273.375 C-121.50351562 274.20386719 -122.44453125 275.03273438 -123.4140625 275.88671875 C-125.01806641 277.29956055 -125.01806641 277.29956055 -126.5625 278.375 C-128.9375 278.1875 -128.9375 278.1875 -130.5625 277.375 C-131.375 275.375 -131.375 275.375 -131.5625 272.375 C-130.47252461 270.21248882 -129.1872088 268.28321505 -127.8203125 266.28515625 C-126.44336201 264.35315874 -126.44336201 264.35315874 -125.625 261.8125 C-123.50589765 256.95102991 -120.03522843 253.24661478 -115.5 250.5625 C-107.81481232 244.8394879 -106.19064418 234.2330444 -104.05078125 225.36914062 C-103.5663475 223.3907132 -103.05338032 221.42190964 -102.53125 219.453125 C-100.71769637 212.53970102 -99.24393711 205.68503547 -98.125 198.625 C-96.74403179 190.13984598 -94.31819593 182.42749401 -89.4375 175.25 C-84.1803555 167.18904511 -84.3706634 159.07495736 -84.55200195 149.76879883 C-84.62561519 145.16216021 -84.51115811 140.96110209 -83.5 136.4375 C-82.3638652 131.35270089 -82.75717394 126.79573811 -83.2578125 121.63671875 C-84.2400124 111.12214289 -83.70807853 101.79198021 -79 92.1875 C-71.54986738 83.59119313 -62.88043323 78.59425708 -52.125 75.4375 C-45.23299605 73.39068676 -39.48687481 70.87141752 -34 66.1875 C-31.35160331 61.00585431 -31.94746222 55.54813348 -33.5 50.0625 C-33.850625 49.175625 -34.20125 48.28875 -34.5625 47.375 C-34.68625 46.4675 -34.81 45.56 -34.9375 44.625 C-35.246875 43.51125 -35.246875 43.51125 -35.5625 42.375 C-36.88717746 41.6912955 -38.22113633 41.02535814 -39.5625 40.375 C-42.11385878 36.16525801 -42.17298786 31.16912526 -41.5625 26.375 C-40.5725 24.89 -40.5725 24.89 -39.5625 23.375 C-39.624375 22.199375 -39.68625 21.02375 -39.75 19.8125 C-39.85268794 14.23654477 -37.79405597 9.84831128 -34.5625 5.375 C-24.79213133 -3.35367495 -11.93683877 -5.58123918 0 0 Z M-34.125 8.9375 C-38.09628333 15.67141521 -37.12274844 24.96381992 -35.5625 32.375 C-36.2225 32.375 -36.8825 32.375 -37.5625 32.375 C-37.5625 30.725 -37.5625 29.075 -37.5625 27.375 C-39.0475 27.87 -39.0475 27.87 -40.5625 28.375 C-39.5725 32.83 -39.5725 32.83 -38.5625 37.375 C-37.2425 36.385 -35.9225 35.395 -34.5625 34.375 C-34.36914062 35.09945312 -34.17578125 35.82390625 -33.9765625 36.5703125 C-33.58597656 38.02050781 -33.58597656 38.02050781 -33.1875 39.5 C-32.91550781 40.51191406 -32.64351563 41.52382813 -32.36328125 42.56640625 C-31.58837042 45.44763412 -31.58837042 45.44763412 -30.375 48.4375 C-28.61226919 54.81044986 -28.6916273 62.40358479 -31.5625 68.375 C-38.39631019 74.30223478 -46.56456469 76.66998984 -55.03515625 79.296875 C-61.48397678 81.39209765 -67.39580074 83.85978217 -72.5625 88.375 C-72.5625 89.035 -72.5625 89.695 -72.5625 90.375 C-73.5525 90.705 -74.5425 91.035 -75.5625 91.375 C-76.77216867 93.29293728 -76.77216867 93.29293728 -77.6875 95.625 C-78.02007812 96.39328125 -78.35265625 97.1615625 -78.6953125 97.953125 C-80.49037536 102.96636362 -80.69812686 107.56156906 -80.6875 112.875 C-80.69007813 114.1640625 -80.69265625 115.453125 -80.6953125 116.78125 C-80.5833443 119.81097781 -80.22460787 122.43400924 -79.5625 125.375 C-79.30632208 129.90080991 -79.84676085 133.50934106 -81.046875 137.85546875 C-82.33294242 144.1396618 -83.59713591 152.27109226 -81.5625 158.375 C-80.45786586 165.69320119 -83.45766186 170.83792463 -86.8359375 177.10546875 C-88.27492493 179.8304291 -89.4876412 182.49242413 -90.5625 185.375 C-91.2225 185.375 -91.8825 185.375 -92.5625 185.375 C-94.00682307 190.62987754 -94.92405621 195.72876044 -95.55078125 201.13916016 C-96.60671348 210.25293668 -98.17995665 218.4277467 -101.37890625 227.046875 C-102.525065 230.26973723 -103.29041658 233.4078201 -104 236.75 C-105.92947263 244.691752 -109.48269867 250.06010471 -116.125 254.8125 C-121.08108666 258.38724494 -123.56709849 262.63947405 -125.5625 268.375 C-125.5625 269.365 -125.5625 270.355 -125.5625 271.375 C-126.5525 271.705 -127.5425 272.035 -128.5625 272.375 C-128.0675 273.86 -128.0675 273.86 -127.5625 275.375 C-124.27101757 274.24000606 -123.5665131 273.38216624 -121.8125 270.25 C-121.4 269.30125 -120.9875 268.3525 -120.5625 267.375 C-117.4798862 273.34241282 -117.06676648 278.46777651 -116.9375 285.125 C-116.88647966 286.99489532 -116.83194798 288.86469906 -116.7734375 290.734375 C-116.75587402 291.55389648 -116.73831055 292.37341797 -116.72021484 293.21777344 C-116.63806949 295.55864553 -116.63806949 295.55864553 -115.5625 298.375 C-114.9025 298.375 -114.2425 298.375 -113.5625 298.375 C-113.22660575 295.27110484 -112.89422763 292.16684301 -112.5625 289.0625 C-112.46710938 288.18142578 -112.37171875 287.30035156 -112.2734375 286.39257812 C-112.18320312 285.54501953 -112.09296875 284.69746094 -112 283.82421875 C-111.91621094 283.04393311 -111.83242188 282.26364746 -111.74609375 281.4597168 C-111.51863651 279.22572529 -111.51863651 279.22572529 -111.5625 276.375 C-109.5625 278.375 -109.5625 278.375 -109.51904297 280.71337891 C-109.61330566 281.66647949 -109.70756836 282.61958008 -109.8046875 283.6015625 C-109.90136719 284.6328125 -109.99804688 285.6640625 -110.09765625 286.7265625 C-110.20980469 287.80679687 -110.32195312 288.88703125 -110.4375 290 C-110.54191406 291.08796875 -110.64632813 292.1759375 -110.75390625 293.296875 C-111.01383417 295.99067348 -111.28376534 298.68309314 -111.5625 301.375 C-110.5725 301.045 -109.5825 300.715 -108.5625 300.375 C-106.27961918 292.58634778 -105.55811876 284.41409191 -104.5625 276.375 C-104.2325 276.375 -103.9025 276.375 -103.5625 276.375 C-103.8925 283.965 -104.2225 291.555 -104.5625 299.375 C-103.9025 299.045 -103.2425 298.715 -102.5625 298.375 C-101.90754866 296.44834804 -101.90754866 296.44834804 -101.4921875 294.12109375 C-101.23115234 292.84008789 -101.23115234 292.84008789 -100.96484375 291.53320312 C-100.79082031 290.63537109 -100.61679687 289.73753906 -100.4375 288.8125 C-100.25574219 287.91080078 -100.07398438 287.00910156 -99.88671875 286.08007812 C-99.43763301 283.84646748 -98.99660596 281.61156192 -98.5625 279.375 C-98.2325 279.705 -97.9025 280.035 -97.5625 280.375 C-97.82066043 282.40801335 -98.0830469 284.44115161 -98.40625 286.46484375 C-98.7357336 288.46073705 -98.7357336 288.46073705 -97.5625 290.375 C-96.9025 290.375 -96.2425 290.375 -95.5625 290.375 C-92.78072548 280.89958054 -91.34288636 272.46239919 -91.75 262.5625 C-92.04392886 253.30249179 -90.27417431 247.84497405 -84.5625 240.375 C-83.39974792 238.61522947 -82.25384885 236.84420845 -81.125 235.0625 C-80.55007813 234.16789063 -79.97515625 233.27328125 -79.3828125 232.3515625 C-76.17133546 227.10017729 -73.33252372 221.65567211 -70.50585938 216.18994141 C-69.62669023 214.49849642 -68.72814508 212.81716166 -67.828125 211.13671875 C-61.66525838 199.37540646 -59.28894062 187.96984206 -59.66796875 174.67578125 C-59.68989598 169.41763239 -58.56790805 164.39144583 -57.5625 159.25 C-55.92822767 150.48085347 -55.00486632 142.31262865 -55.5625 133.375 C-53.5625 135.375 -53.5625 135.375 -53.296875 137.7734375 C-53.33067322 144.21199854 -53.87159947 150.26670982 -55.125 156.5859375 C-56.06682946 162.59010028 -55.59619756 165.91902715 -52.5 171.1875 C-49.44156618 176.95257596 -49.037287 180.07078627 -50.5625 186.375 C-50.8925 187.035 -51.2225 187.695 -51.5625 188.375 C-51.84768312 190.86867257 -52.08318902 193.34678848 -52.28125 195.84765625 C-52.34405151 196.60356552 -52.40685303 197.35947479 -52.47155762 198.13829041 C-52.60457736 199.74966672 -52.73558014 201.36121058 -52.86474609 202.97290039 C-53.0575827 205.37621584 -53.25670259 207.77893946 -53.45703125 210.18164062 C-54.1534456 218.64090942 -54.73935365 227.09805562 -55.20848083 235.57287598 C-55.46675385 240.10632229 -55.84996169 244.60434736 -56.36230469 249.11523438 C-59.20590295 274.25306589 -59.0085193 300.33921241 -50.5625 324.375 C-50.02036865 325.92646729 -50.02036865 325.92646729 -49.46728516 327.50927734 C-45.50335271 339.64290725 -45.50335271 339.64290725 -40.5625 351.375 C-39.22025852 364.12629405 -42.25839208 376.36939844 -44.98999023 388.75048828 C-45.17891846 389.61657715 -45.36784668 390.48266602 -45.5625 391.375 C-45.75312012 392.24672852 -45.94374023 393.11845703 -46.14013672 394.01660156 C-48.49796586 407.18228337 -43.79597835 421.27169398 -39.078125 433.3828125 C-37.31179407 437.95204325 -35.88381772 442.60039368 -34.5078125 447.30078125 C-33.88065694 449.3403326 -33.18778749 451.36088152 -32.4296875 453.35546875 C-29.54936688 460.97925444 -28.30600485 468.23417846 -29.5625 476.375 C-31.9375 479.5 -31.9375 479.5 -34.5625 481.375 C-34.871875 482.055625 -35.18125 482.73625 -35.5 483.4375 C-37.12771659 486.40568907 -39.72621653 487.64856658 -42.5625 489.375 C-40.31752779 491.61997221 -39.60222651 491.74503419 -36.5625 492.125 C-35.510625 492.27195312 -35.510625 492.27195312 -34.4375 492.421875 C-32.31228264 492.58425848 -32.31228264 492.58425848 -30.5625 490.375 C-30.2325 490.705 -29.9025 491.035 -29.5625 491.375 C-27.07191086 491.47497642 -24.61522605 491.51379627 -22.125 491.5 C-21.43083984 491.50386719 -20.73667969 491.50773437 -20.02148438 491.51171875 C-16.16480243 491.56859835 -16.16480243 491.56859835 -12.5625 490.375 C-13.86405006 486.29535719 -13.86405006 486.29535719 -15.5625 482.375 C-14.9025 482.375 -14.2425 482.375 -13.5625 482.375 C-13.583125 481.42625 -13.60375 480.4775 -13.625 479.5 C-13.5625 476.375 -13.5625 476.375 -12.5625 474.375 C-12.91941085 470.2348342 -13.45197003 466.14421671 -14.04296875 462.03125 C-15.16269896 453.88163465 -15.86173241 445.78127386 -16.25 437.5625 C-16.29833984 436.62067871 -16.34667969 435.67885742 -16.39648438 434.70849609 C-16.58245955 430.20490231 -16.57027729 425.86859032 -16.07421875 421.38671875 C-15.54708241 416.3338365 -15.51454199 411.36153091 -15.5703125 406.2890625 C-15.57821304 405.46016006 -15.58611359 404.63125763 -15.59425354 403.77723694 C-15.6303321 400.33287281 -15.67136435 396.88881932 -15.73388672 393.44482422 C-15.89597539 383.96172657 -15.64525384 374.90973414 -14.0625 365.546875 C-11.85221297 352.12779851 -12.25962805 338.62198116 -12.41479492 325.0692749 C-12.47477389 319.60296549 -12.51021037 314.13641774 -12.54251862 308.66988373 C-12.55458342 306.68121902 -12.56887747 304.69256825 -12.58319092 302.70391846 C-12.6242542 293.54767023 -12.38480956 284.43438791 -11.8366394 275.29434204 C-11.78758453 274.4332785 -11.73852966 273.57221497 -11.68798828 272.68505859 C-11.64006134 271.94371674 -11.5921344 271.20237488 -11.54275513 270.43856812 C-11.56354024 268.26628265 -11.95261973 266.45334266 -12.5625 264.375 C-13.39007813 264.70242188 -14.21765625 265.02984375 -15.0703125 265.3671875 C-18.94470092 266.48529959 -22.45082323 266.60043953 -26.4375 266.5 C-27.12585938 266.49097656 -27.81421875 266.48195313 -28.5234375 266.47265625 C-30.20327838 266.44932513 -31.88293746 266.41346326 -33.5625 266.375 C-33.8925 265.715 -34.2225 265.055 -34.5625 264.375 C-33.62148438 264.39820313 -32.68046875 264.42140625 -31.7109375 264.4453125 C-30.46570313 264.46335937 -29.22046875 264.48140625 -27.9375 264.5 C-26.09285156 264.53480469 -26.09285156 264.53480469 -24.2109375 264.5703125 C-20.57131763 264.37547204 -17.87750287 263.8781995 -14.5625 262.375 C-13.6324111 259.5847333 -13.37551231 257.60970458 -13.24609375 254.70703125 C-13.20419922 253.81435547 -13.16230469 252.92167969 -13.11914062 252.00195312 C-13.07982422 251.07318359 -13.04050781 250.14441406 -13 249.1875 C-12.93522461 247.77694336 -12.93522461 247.77694336 -12.86914062 246.33789062 C-12.76311335 244.01707146 -12.66104971 241.69614675 -12.5625 239.375 C-11.47364116 241.55271767 -11.3463292 242.95458504 -11.16796875 245.3671875 C-11.09900391 246.15480469 -11.03003906 246.94242188 -10.95898438 247.75390625 C-10.82038952 249.40927278 -10.69266406 251.06558762 -10.57617188 252.72265625 C-10.12881954 257.61223055 -10.12881954 257.61223055 -7.73828125 261.8203125 C-3.05203385 265.16883398 -0.1747427 265.60856005 5.6875 265.5 C6.95078125 265.48195313 8.2140625 265.46390625 9.515625 265.4453125 C10.47984375 265.42210937 11.4440625 265.39890625 12.4375 265.375 C12.4375 266.035 12.4375 266.695 12.4375 267.375 C4.67486014 268.60716506 -1.15256996 267.84497668 -8.5625 265.375 C-8.55089844 266.07882812 -8.53929687 266.78265625 -8.52734375 267.5078125 C-8.47699148 273.01778987 -8.60104582 278.45002587 -9.05371094 283.94287109 C-9.57965323 291.02394991 -9.74000263 298.06539153 -9.765625 305.1640625 C-9.77132507 306.42858246 -9.77702515 307.69310242 -9.78289795 308.99594116 C-9.79227394 311.65309212 -9.79920869 314.31013227 -9.80273438 316.96728516 C-9.80711025 319.64515878 -9.82099174 322.32270862 -9.84375 325.00048828 C-10.97062763 349.8315172 -10.97062763 349.8315172 -5.48677063 373.7331543 C-4.36680347 376.93436002 -4.56634809 379.07510998 -4.93139648 382.43994141 C-5.75171801 391.74295986 -5.6876677 401.00259639 -5.66015625 410.3359375 C-5.65828656 412.22164878 -5.65686526 414.10736056 -5.65586853 415.99307251 C-5.65208672 420.9084207 -5.64229452 425.8237384 -5.63116455 430.73907471 C-5.62085615 435.77396228 -5.61635089 440.80885487 -5.61132812 445.84375 C-5.60066749 455.68751325 -5.5836445 465.53125407 -5.5625 475.375 C-6.2225 475.375 -6.8825 475.375 -7.5625 475.375 C-7.5625 477.025 -7.5625 478.675 -7.5625 480.375 C-7.2325 479.715 -6.9025 479.055 -6.5625 478.375 C-5.9025 478.375 -5.2425 478.375 -4.5625 478.375 C-4.913125 479.261875 -5.26375 480.14875 -5.625 481.0625 C-6.78222775 485.15137138 -6.4413384 487.61732319 -4.5625 491.375 C0.45212597 492.30993027 4.41028473 492.50612344 9.4375 491.375 C9.1075 490.385 8.7775 489.395 8.4375 488.375 C9.0975 488.375 9.7575 488.375 10.4375 488.375 C11.4275 489.86 11.4275 489.86 12.4375 491.375 C15.4075 491.045 18.3775 490.715 21.4375 490.375 C21.7675 489.385 22.0975 488.395 22.4375 487.375 C18.63322508 485.1736134 18.63322508 485.1736134 14.4375 484.375 C14.4375 483.385 14.4375 482.395 14.4375 481.375 C12.49740478 479.66967677 12.49740478 479.66967677 10.4375 478.375 C10.1075 478.705 9.7775 479.035 9.4375 479.375 C9.21154701 472.74926074 9.9224346 467.0929689 11.5625 460.6875 C11.78405762 459.79192383 12.00561523 458.89634766 12.23388672 457.97363281 C18.59421758 432.54113702 18.59421758 432.54113702 22.0546875 422.734375 C27.38126162 406.99023446 24.55793215 388.7814579 21.8605957 372.84057617 C19.1859305 356.8056902 21.93093557 343.3045127 26.4375 327.875 C36.0284819 294.75238268 40.62036109 250.92358328 29.4375 217.375 C29.40180207 215.91312606 29.42231569 214.44943421 29.48046875 212.98828125 C29.50173828 212.13169922 29.52300781 211.27511719 29.54492188 210.39257812 C29.59774113 208.60831795 29.66258288 206.82436766 29.74023438 205.04101562 C29.85208261 199.49417169 29.09160583 195.96666212 26.35668945 191.14672852 C23.10971015 184.88820824 25.40842425 176.81753456 27.375 170.5 C27.73464844 169.47132813 28.09429688 168.44265625 28.46484375 167.3828125 C30.2317273 161.91895574 30.44825886 157.99342509 29.4375 152.375 C29.31507286 149.58200114 29.34214741 146.79499756 29.375 144 C29.37951172 143.26394531 29.38402344 142.52789062 29.38867188 141.76953125 C29.40034858 139.97131842 29.41827989 138.17314803 29.4375 136.375 C30.0975 136.375 30.7575 136.375 31.4375 136.375 C31.41429687 137.26960937 31.39109375 138.16421875 31.3671875 139.0859375 C31.23897137 147.67641853 31.77380974 155.30743772 34.45703125 163.48046875 C35.8518281 168.31623979 35.94328499 173.25137425 36.25 178.25 C37.35506663 192.90495537 40.49891876 205.82638311 48.4375 218.375 C48.84307129 219.02500977 49.24864258 219.67501953 49.66650391 220.34472656 C53.99178642 227.2595593 58.3112669 234.14390631 63.4375 240.5 C68.14630294 246.4622253 69.57787686 250.1114188 69.3125 257.6875 C69.00345592 269.45494758 71.991611 280.92485687 74.4375 292.375 C75.4275 292.705 76.4175 293.035 77.4375 293.375 C77.1075 288.755 76.7775 284.135 76.4375 279.375 C79.51785714 291.29464286 79.51785714 291.29464286 80 295.5625 C80.144375 296.490625 80.28875 297.41875 80.4375 298.375 C81.0975 298.705 81.7575 299.035 82.4375 299.375 C83.0975 299.045 83.7575 298.715 84.4375 298.375 C83.8116355 291.37064408 83.15075905 284.37100901 82.4375 277.375 C84.50644987 281.86372168 85.2680571 286.35193681 86.0625 291.1875 C86.1965625 291.97576172 86.330625 292.76402344 86.46875 293.57617188 C86.7966229 295.50828006 87.11774237 297.4415322 87.4375 299.375 C88.0975 299.375 88.7575 299.375 89.4375 299.375 C89.54558032 292.27772572 89.37604006 285.41405044 88.4375 278.375 C89.0975 278.375 89.7575 278.375 90.4375 278.375 C90.45731934 278.94009277 90.47713867 279.50518555 90.49755859 280.08740234 C90.59268236 282.64207997 90.70241058 285.19592541 90.8125 287.75 C90.85890625 289.08417969 90.85890625 289.08417969 90.90625 290.4453125 C90.94492187 291.29609375 90.98359375 292.146875 91.0234375 293.0234375 C91.0548584 293.80895996 91.0862793 294.59448242 91.11865234 295.40380859 C91.2774465 297.60502939 91.2774465 297.60502939 93.4375 299.375 C93.746875 298.385 94.05625 297.395 94.375 296.375 C94.54902344 295.818125 94.72304688 295.26125 94.90234375 294.6875 C96.44394503 288.02598204 96.68114659 281.18069079 97 274.375 C97.06477539 273.06982422 97.06477539 273.06982422 97.13085938 271.73828125 C97.23574218 269.61731781 97.33700075 267.49617567 97.4375 265.375 C97.90800781 265.86871094 98.37851562 266.36242187 98.86328125 266.87109375 C99.48589844 267.51175781 100.10851562 268.15242188 100.75 268.8125 C101.36488281 269.45058594 101.97976563 270.08867187 102.61328125 270.74609375 C104.44394056 272.5971418 104.44394056 272.5971418 107.4375 273.375 C105.90892231 265.05715517 99.58458006 256.096382 93.4375 250.375 C92.550625 249.859375 91.66375 249.34375 90.75 248.8125 C85.85437134 245.76927137 84.35877971 238.75349921 82.4375 233.5 C82.19 232.83097656 81.9425 232.16195312 81.6875 231.47265625 C81.18552159 230.11574587 80.68627334 228.75782251 80.18969727 227.39892578 C79.69726949 226.07395783 79.19043214 224.75423515 78.66772461 223.44091797 C76.57906891 218.14432696 75.24948603 212.79802271 74 207.25 C73.5602633 205.37851318 73.11885455 203.50741845 72.67578125 201.63671875 C72.09883277 199.19242831 71.52227859 196.74846508 70.96630859 194.29931641 C69.47781066 187.82168931 67.61557522 182.47449412 63.99731445 176.93139648 C57.87968051 167.45858338 57.44349948 159.17304554 57.53515625 148.0390625 C57.56028185 143.36091478 56.96750564 139.12750842 55.89111328 134.58105469 C55.07291863 130.60193367 54.89317892 126.45292412 55.9296875 122.49609375 C58.52593629 111.65176227 55.25425386 101.67370205 49.625 92.4375 C45.54261711 86.03258843 38.7321263 83.92996995 31.75 82 C24.5386457 79.87580954 18.0064278 77.07002188 11.4375 73.375 C10.7775 73.0140625 10.1175 72.653125 9.4375 72.28125 C5.84255477 70.13810957 4.68832343 68.30213481 3.4375 64.375 C2.60421414 56.04214144 3.70478698 47.53266347 5.4375 39.375 C5.7675 39.045 6.0975 38.715 6.4375 38.375 C7.0975 39.035 7.7575 39.695 8.4375 40.375 C10.59055957 36.51743493 11.83003254 33.82370215 11.4375 29.375 C10.4475 30.695 9.4575 32.015 8.4375 33.375 C8.54449219 32.39660156 8.65148437 31.41820313 8.76171875 30.41015625 C9.589003 21.36340269 10.11396685 13.97058356 4.1875 6.5625 C3.28 5.840625 2.3725 5.11875 1.4375 4.375 C0.0453125 3.2303125 0.0453125 3.2303125 -1.375 2.0625 C-12.59341195 -3.91573268 -25.78615458 0.59865458 -34.125 8.9375 Z M-11.5625 367.375 C-13.92179098 378.41803791 -13.92179098 378.41803791 -13.05859375 389.5703125 C-12.36097964 393.51430411 -12.41831406 397.3779294 -12.4375 401.375 C-12.43363281 402.14972656 -12.42976563 402.92445313 -12.42578125 403.72265625 C-12.43334725 408.37574471 -12.66514986 412.96451213 -13.0546875 417.6015625 C-14.42183867 434.35591417 -15.29044199 452.08048564 -10.5625 468.375 C-9.5725 467.88 -9.5725 467.88 -8.5625 467.375 C-7.24946252 461.71073345 -7.41345953 455.62166222 -7.4296875 449.83203125 C-7.42873077 449.0599382 -7.42777405 448.28784515 -7.42678833 447.49235535 C-7.42611374 445.87649452 -7.42791715 444.26063087 -7.43212891 442.64477539 C-7.43750974 440.18304348 -7.432148 437.72149214 -7.42578125 435.25976562 C-7.42644173 433.6796871 -7.42772227 432.09960869 -7.4296875 430.51953125 C-7.42766327 429.7912764 -7.42563904 429.06302155 -7.42355347 428.31269836 C-7.44222837 424.21743599 -7.86104699 420.40116216 -8.5625 416.375 C-8.65040121 414.35559399 -8.69307653 412.33381696 -8.6953125 410.3125 C-8.69724609 408.62253906 -8.69724609 408.62253906 -8.69921875 406.8984375 C-8.69535156 405.73570312 -8.69148438 404.57296875 -8.6875 403.375 C-8.69136719 402.21226562 -8.69523437 401.04953125 -8.69921875 399.8515625 C-8.69792969 398.72492188 -8.69664062 397.59828125 -8.6953125 396.4375 C-8.69418457 395.41785156 -8.69305664 394.39820313 -8.69189453 393.34765625 C-8.5585242 390.28366172 -8.11274549 387.38936519 -7.5625 384.375 C-6.98907974 377.957104 -7.99003737 373.27022685 -10.5625 367.375 C-10.8925 367.375 -11.2225 367.375 -11.5625 367.375 Z M-10.5625 477.375 C-10.78424933 478.83135371 -10.98948698 480.29022956 -11.1875 481.75 C-11.30351562 482.56210937 -11.41953125 483.37421875 -11.5390625 484.2109375 C-11.54679687 484.92507813 -11.55453125 485.63921875 -11.5625 486.375 C-10.9025 487.035 -10.2425 487.695 -9.5625 488.375 C-9.35625 487.116875 -9.15 485.85875 -8.9375 484.5625 C-8.82148438 483.85480469 -8.70546875 483.14710938 -8.5859375 482.41796875 C-8.36672152 480.05744176 -8.36672152 480.05744176 -10.5625 477.375 Z " fill="#000000" transform="translate(500.5625,12.625)"/>
<path d="M0 0 C0 0.99 0 1.98 0 3 C-1.19625 2.979375 -2.3925 2.95875 -3.625 2.9375 C-7.18004869 2.93117429 -10.50555624 3.30111125 -14 4 C-14 3.34 -14 2.68 -14 2 C-8.77729131 -0.66464729 -5.9180497 -1.32854177 0 0 Z " fill="#000000" transform="translate(123,35)"/>
<path d="M0 0 C0 0.66 0 1.32 0 2 C-0.66386719 1.9278125 -1.32773438 1.855625 -2.01171875 1.78125 C-2.89472656 1.6884375 -3.77773437 1.595625 -4.6875 1.5 C-5.55761719 1.4071875 -6.42773438 1.314375 -7.32421875 1.21875 C-9.89723339 1.00840136 -12.41984364 0.96280856 -15 1 C-15 0.34 -15 -0.32 -15 -1 C-9.24494947 -3.80374257 -5.57861091 -2.30582584 0 0 Z " fill="#000000" transform="translate(143,37)"/>
<path d="M0 0 C3.07921132 -0.25660094 5.21136993 -0.39431504 8 1 C7.67 1.99 7.34 2.98 7 4 C4.03 3.67 1.06 3.34 -2 3 C-1.34 2.01 -0.68 1.02 0 0 Z " fill="#000000" transform="translate(114,39)"/>
<path d="M0 0 C0.33 0.99 0.66 1.98 1 3 C-0.258125 3.185625 -1.51625 3.37125 -2.8125 3.5625 C-3.87404297 3.71912109 -3.87404297 3.71912109 -4.95703125 3.87890625 C-7 4 -7 4 -10 3 C-9.67 2.01 -9.34 1.02 -9 0 C-5.93109813 -1.53445094 -3.29905734 -0.54984289 0 0 Z " fill="#000000" transform="translate(141,40)"/>
<path d="M0 0 C0.33 0 0.66 0 1 0 C1.13277344 0.63808594 1.26554688 1.27617188 1.40234375 1.93359375 C1.57894531 2.75988281 1.75554687 3.58617187 1.9375 4.4375 C2.11152344 5.26121094 2.28554687 6.08492187 2.46484375 6.93359375 C2.80752994 8.97661204 2.80752994 8.97661204 4 10 C4 11.65 4 13.3 4 15 C0.7 15 -2.6 15 -6 15 C-5.67 14.01 -5.34 13.02 -5 12 C-3.35 12 -1.7 12 0 12 C0 9.51235078 -0.20577133 7.3224296 -0.5625 4.875 C-0.706875 3.59625 -0.85125 2.3175 -1 1 C-0.67 0.67 -0.34 0.34 0 0 Z " fill="#000000" transform="translate(128,40)"/>
<path d="M0 0 C0.9384375 -0.00515625 1.876875 -0.0103125 2.84375 -0.015625 C5.54047676 0.25404768 7.18949293 0.8767741 9.5 2.25 C2.93507888 3.03441153 -2.96837378 3.35914408 -9.5 2.25 C-6.2396882 0.31226752 -3.77138064 -0.02072187 0 0 Z " fill="#000000" transform="translate(126.5,58.75)"/>
<path d="M0 0 C4.29 0 8.58 0 13 0 C9.31282562 2.45811625 7.35654296 2.31118164 3 2 C2.01 1.34 1.02 0.68 0 0 Z " fill="#000000" transform="translate(120,63)"/>
<path d="M0 0 C0.99 0.33 1.98 0.66 3 1 C3 2.32 3 3.64 3 5 C1.35 5 -0.3 5 -2 5 C-2 3.68 -2 2.36 -2 1 C-1.34 0.67 -0.68 0.34 0 0 Z " fill="#000000" transform="translate(160,136)"/>
<path d="M0 0 C1.32 0 2.64 0 4 0 C4 1.65 4 3.3 4 5 C2.68 5 1.36 5 0 5 C-0.5625 3.0625 -0.5625 3.0625 -1 1 C-0.67 0.67 -0.34 0.34 0 0 Z " fill="#000000" transform="translate(94,138)"/>
<path d="M0 0 C0.66 0.33 1.32 0.66 2 1 C-0.92423178 5.32786303 -3.87774916 7.89485684 -9 9 C-13.34633018 9.23356447 -17.65240591 9.17651886 -22 9 C-22 8.34 -22 7.68 -22 7 C-21.2265625 6.97421875 -20.453125 6.9484375 -19.65625 6.921875 C-11.98477446 6.50412138 -5.6664918 5.6664918 0 0 Z " fill="#000000" transform="translate(169,142)"/>
<path d="M0 0 C2.62901288 1.52206009 4.84365964 2.84365964 7 5 C13.16311834 5.6273833 19.27268612 5.54547283 25 3 C24.04254012 5.61125422 23.34378312 6.79164659 20.9375 8.25 C15.41194402 9.66078025 10.24072377 9.98269055 5.0625 7.3125 C1.93854444 4.95359478 0.93399652 3.73598609 0 0 Z " fill="#000000" transform="translate(84,143)"/>
<path d="M0 0 C4.3177458 0.50797009 8.03302114 1.19682779 12 3 C12 3.33 12 3.66 12 4 C10.56138706 3.91253716 9.12402492 3.80434652 7.6875 3.6875 C6.88699219 3.62949219 6.08648437 3.57148438 5.26171875 3.51171875 C2.63727666 2.91793306 1.69179328 2.04219706 0 0 Z " fill="#000000" transform="translate(63,179)"/>
<path d="M0 0 C-4.22949995 2.41685712 -7.12335991 3.34833144 -12 3 C-8.61613364 -0.38386636 -4.56431325 -1.75550509 0 0 Z " fill="#000000" transform="translate(193,180)"/>
<path d="M0 0 C-0.66 1.32 -1.32 2.64 -2 4 C-4.31 4 -6.62 4 -9 4 C-8 2 -8 2 -5.0625 0.875 C-2 0 -2 0 0 0 Z " fill="#000000" transform="translate(437,194)"/>
<path d="M0 0 C3.67446567 0.70662801 6.73912209 2.18840116 10 4 C10.33 4.66 10.66 5.32 11 6 C9.53815942 5.77139942 8.08044581 5.51629608 6.625 5.25 C5.40683594 5.04117188 5.40683594 5.04117188 4.1640625 4.828125 C2 4 2 4 0.7109375 1.921875 C0.47632813 1.28765625 0.24171875 0.6534375 0 0 Z " fill="#000000" transform="translate(540,197)"/>
<path d="M0 0 C0 0.66 0 1.32 0 2 C0.66 2 1.32 2 2 2 C1.67 3.32 1.34 4.64 1 6 C-1.4375 5.625 -1.4375 5.625 -4 5 C-4.33 4.34 -4.66 3.68 -5 3 C-2.25 0 -2.25 0 0 0 Z " fill="#000000" transform="translate(130,202)"/>
<path d="M0 0 C2.97 0.99 5.94 1.98 9 3 C8.01 3.66 7.02 4.32 6 5 C2.3125 3.625 2.3125 3.625 -1 2 C-0.67 1.34 -0.34 0.68 0 0 Z " fill="#000000" transform="translate(141,373)"/>
<path d="M0 0 C0.99 0.33 1.98 0.66 3 1 C4.1875 4.0625 4.1875 4.0625 5 7 C3.0625 6.3125 3.0625 6.3125 1 5 C0.25 2.375 0.25 2.375 0 0 Z " fill="#000000" transform="translate(103,375)"/>
<path d="M0 0 C0.66 0 1.32 0 2 0 C1.34 5.61 0.68 11.22 0 17 C-0.66 16.67 -1.32 16.34 -2 16 C-2.20413361 10.26157749 -2.27141454 5.39460953 0 0 Z " fill="#000000" transform="translate(153,375)"/>
<path d="M0 0 C0.80050781 0.12761719 1.60101563 0.25523437 2.42578125 0.38671875 C3.23402344 0.50660156 4.04226563 0.62648438 4.875 0.75 C5.48988281 0.85699219 6.10476563 0.96398437 6.73828125 1.07421875 C6.40828125 1.73421875 6.07828125 2.39421875 5.73828125 3.07421875 C2.10828125 3.07421875 -1.52171875 3.07421875 -5.26171875 3.07421875 C-2.26171875 0.07421875 -2.26171875 0.07421875 0 0 Z " fill="#000000" transform="translate(474.26171875,374.92578125)"/>
<path d="M0 0 C1.45792884 -0.05399736 2.91642712 -0.09279177 4.375 -0.125 C5.18710937 -0.14820313 5.99921875 -0.17140625 6.8359375 -0.1953125 C9 0 9 0 11 2 C7.32589215 3.17571451 3.83070817 3.07366746 0 3 C0 2.01 0 1.02 0 0 Z " fill="#000000" transform="translate(505,375)"/>
<path d="M0 0 C2.52893294 2.34160457 4.73354191 4.82152732 6.8125 7.5625 C7.25207031 8.14128906 7.69164062 8.72007812 8.14453125 9.31640625 C8.56798828 10.14978516 8.56798828 10.14978516 9 11 C8.67 11.99 8.34 12.98 8 14 C8 13.34 8 12.68 8 12 C7.34 12 6.68 12 6 12 C6 11.34 6 10.68 6 10 C5.401875 9.773125 4.80375 9.54625 4.1875 9.3125 C1.37825265 7.62695159 0.36706301 5.94997808 -1 3 C-0.67 2.01 -0.34 1.02 0 0 Z " fill="#000000" transform="translate(138,377)"/>
<path d="M0 0 C2 1 2 1 3.0703125 3.6171875 C3.41835937 4.69226563 3.76640625 5.76734375 4.125 6.875 C4.47820312 7.94492187 4.83140625 9.01484375 5.1953125 10.1171875 C6 13 6 13 6 16 C2.00131078 13.33420718 1.21016229 10.53810858 0 6 C-0.1875 2.5 -0.1875 2.5 0 0 Z " fill="#000000" transform="translate(104,381)"/>
</svg>
